Coordinates
version=1
nRows=63
nColumns=11
inDegrees=no

Units are S.I. units (second, meters, Newtons, ...)
If the header above contains a line with 'inDegrees', this indicates whether rotational values are in degrees (yes) or radians (no).

endheader
time	pelvis_tilt	pelvis_tx	pelvis_ty	hip_flexion_r	knee_angle_r	ankle_angle_r	hip_flexion_l	knee_angle_l	ankle_angle_l	lumbar_extension
0.01	0.0665272	0.028496	0.950597	-0.00846565	-0.206677	0.158088	-0.0406665	-0.157597	0.142308	0
0.02	0.0701969	0.0286423	0.950762	-0.013025	-0.205493	0.157395	-0.045254	-0.156625	0.142095	0
0.03	0.0714233	0.0281707	0.950777	-0.0129662	-0.206972	0.156689	-0.0455609	-0.15735	0.141986	0
0.04	0.073332	0.0276781	0.950891	-0.0138875	-0.208146	0.156985	-0.0465534	-0.158335	0.142411	0
0.05	0.0749987	0.0273534	0.950972	-0.0153039	-0.208091	0.157099	-0.047621	-0.159131	0.143345	0
0.06	0.0752508	0.0269179	0.950954	-0.0146121	-0.208802	0.157497	-0.0462792	-0.161224	0.143623	0
0.07	0.0752476	0.0265141	0.950918	-0.0137115	-0.209715	0.156548	-0.0449675	-0.162867	0.143361	0
0.08	0.075392	0.0263152	0.95093	-0.0135465	-0.209973	0.156328	-0.04479	-0.163067	0.143429	0
0.09	0.0766494	0.0262813	0.951022	-0.0148689	-0.209848	0.156723	-0.0460618	-0.163163	0.143783	0
0.1	0.0781949	0.0261404	0.951152	-0.0161109	-0.210348	0.156747	-0.047541	-0.163242	0.143742	0
0.11	0.079168	0.0252961	0.951171	-0.014462	-0.21384	0.157624	-0.0468913	-0.16444	0.143333	0
0.12	0.0804181	0.0247559	0.951223	-0.0138077	-0.216938	0.158751	-0.0477184	-0.164023	0.14254	0
0.13	0.082577	0.0245323	0.951342	-0.0165118	-0.215948	0.159562	-0.0502678	-0.16315	0.141809	0
0.14	0.0837653	0.0242041	0.951401	-0.0176767	-0.215521	0.159915	-0.0510274	-0.163285	0.141585	0
0.15	0.0846256	0.023992	0.951413	-0.0179917	-0.216085	0.160778	-0.0515334	-0.163454	0.14154	0
0.16	0.0851303	0.0236125	0.951412	-0.0173047	-0.217341	0.161203	-0.0514221	-0.163882	0.141306	0
0.17	0.0853282	0.0230854	0.951381	-0.0158554	-0.219384	0.161311	-0.0505145	-0.164872	0.141422	0
0.18	0.0856244	0.0226407	0.951365	-0.0142206	-0.222166	0.161042	-0.0494953	-0.166428	0.141681	0
0.19	0.0859838	0.022338	0.951336	-0.0137134	-0.223542	0.161779	-0.0487045	-0.16803	0.14227	0
0.2	0.0862782	0.0219477	0.951221	-0.0129828	-0.224996	0.162938	-0.0480074	-0.169367	0.14309	0
0.21	0.0884652	0.0217428	0.951311	-0.0152153	-0.224726	0.164027	-0.0495194	-0.170509	0.143301	0
0.22	0.0910243	0.0216067	0.951474	-0.0181121	-0.224144	0.163797	-0.0515162	-0.171489	0.143291	0
0.23	0.091645	0.0212781	0.951484	-0.0187216	-0.223674	0.163024	-0.0507477	-0.173539	0.143572	0
0.24	0.0915796	0.0209493	0.951473	-0.0181349	-0.223935	0.162491	-0.0499724	-0.17415	0.143499	0
0.25	0.0916197	0.0206838	0.951483	-0.0172084	-0.225031	0.163192	-0.0491912	-0.175098	0.143369	0
0.26	0.0916163	0.020318	0.95144	-0.0157688	-0.227103	0.164382	-0.0481209	-0.176162	0.144041	0
0.27	0.0919377	0.0199557	0.9514	-0.015062	-0.228619	0.164071	-0.0474439	-0.177118	0.144627	0
0.28	0.0923664	0.0196578	0.951369	-0.0151627	-0.228542	0.163448	-0.0466679	-0.17914	0.145748	0
0.29	0.0923397	0.0191849	0.951266	-0.0147287	-0.228071	0.162882	-0.0454047	-0.180508	0.146474	0
0.3	0.0919722	0.0186591	0.951199	-0.01383	-0.228056	0.16229	-0.0435207	-0.182129	0.146466	0
0.31	0.091623	0.0185375	0.951145	-0.0130821	-0.228685	0.163216	-0.0423118	-0.183597	0.146863	0
0.32	0.0917736	0.0183975	0.951126	-0.0129264	-0.229173	0.164635	-0.0412604	-0.185813	0.14709	0
0.33	0.0927656	0.0181289	0.951142	-0.0133101	-0.230033	0.165794	-0.0400792	-0.189477	0.148596	0
0.34	0.0934944	0.0176941	0.951109	-0.0126123	-0.23194	0.165606	-0.0380313	-0.193735	0.149867	0
0.35	0.093193	0.0172283	0.950965	-0.0110785	-0.233217	0.165904	-0.035291	-0.197448	0.150905	0
0.36	0.0925537	0.0170069	0.950813	-0.0102729	-0.233414	0.167091	-0.0329888	-0.20037	0.151864	0
0.37	0.0919242	0.016767	0.95066	-0.00949724	-0.23366	0.168662	-0.0303141	-0.204435	0.153723	0
0.38	0.0915858	0.0165005	0.950605	-0.00884917	-0.234493	0.169081	-0.0277765	-0.209771	0.156084	0
0.39	0.0913119	0.0158757	0.950561	-0.00760651	-0.236106	0.169094	-0.0247534	-0.216234	0.159086	0
0.4	0.0918419	0.0152681	0.950515	-0.00692125	-0.238995	0.170401	-0.0234621	-0.220509	0.162657	0
0.41	0.093113	0.0151254	0.950507	-0.00849797	-0.24021	0.173316	-0.0245324	-0.222854	0.164811	0
0.42	0.0939549	0.0149921	0.950436	-0.0104012	-0.240327	0.174669	-0.0249177	-0.225711	0.166753	0
0.43	0.0943272	0.0145962	0.950315	-0.0112407	-0.240838	0.176139	-0.023665	-0.230163	0.169433	0
0.44	0.0944814	0.0143321	0.950135	-0.0113928	-0.242536	0.180467	-0.02206	-0.235253	0.172313	0
0.45	0.0939086	0.013979	0.949882	-0.0102837	-0.244624	0.183976	-0.0199235	-0.239898	0.175159	0
0.46	0.0926347	0.013238	0.949607	-0.00730985	-0.247901	0.18568	-0.0159985	-0.245578	0.178715	0
0.47	0.0917103	0.0128475	0.94944	-0.00614467	-0.249803	0.186852	-0.0127777	-0.251279	0.180893	0
0.48	0.091686	0.0127389	0.949366	-0.00654429	-0.251229	0.187349	-0.0112122	-0.256161	0.181358	0
0.49	0.0914685	0.0127563	0.949258	-0.00766624	-0.250546	0.187488	-0.00963142	-0.260907	0.182266	0
0.5	0.0929119	0.0132752	0.949384	-0.0127738	-0.246578	0.185835	-0.0121779	-0.262563	0.182587	0
0.51	0.0939596	0.0136103	0.949563	-0.0167589	-0.242978	0.183293	-0.0133058	-0.26612	0.185929	0
0.52	0.0930976	0.0134182	0.949682	-0.0163324	-0.243401	0.181547	-0.0103118	-0.272997	0.189723	0
0.53	0.090116	0.0127178	0.949638	-0.0125619	-0.244758	0.178136	-0.00297221	-0.282279	0.191238	0
0.54	0.0870249	0.0119341	0.949611	-0.00816305	-0.246575	0.175942	0.00683495	-0.295468	0.193185	0
0.55	0.0858796	0.0114729	0.949684	-0.00646736	-0.248462	0.174833	0.0162076	-0.312483	0.195884	0
0.56	0.0852271	0.010955	0.949841	-0.0063406	-0.249116	0.172105	0.025556	-0.330282	0.195937	0
0.57	0.0833015	0.0102322	0.949963	-0.00639202	-0.246421	0.169823	0.037344	-0.348865	0.195525	0
0.58	0.0813348	0.00953236	0.950161	-0.004814	-0.246285	0.170281	0.049509	-0.369137	0.195031	0
0.59	0.0801	0.00865358	0.950349	-0.00237462	-0.249683	0.173433	0.0626556	-0.392178	0.192556	0
0.6	0.0792225	0.00755844	0.950397	-2.68626e-05	-0.252958	0.17332	0.0769496	-0.41745	0.189976	0
0.61	0.0775967	0.00629559	0.950373	0.00192902	-0.252684	0.171215	0.0929172	-0.443137	0.185592	0
0.62	0.0741046	0.00497528	0.950297	0.00503491	-0.251445	0.169145	0.111463	-0.469752	0.180342	0
0.63	0.0676319	0.00350166	0.949964	0.0138259	-0.254733	0.169188	0.134962	-0.499328	0.174347	0
